<?xml version="1.0" standalone="no"?>
<!DOCTYPE svg PUBLIC "-//W3C//DTD SVG 20010904//EN"
 "http://www.w3.org/TR/2001/REC-SVG-20010904/DTD/svg10.dtd">
<svg version="1.0" xmlns="http://www.w3.org/2000/svg"
 width="500.000000pt" height="500.000000pt" viewBox="0 0 500.000000 500.000000"
 preserveAspectRatio="xMidYMid meet">
<metadata>
Created by potrace 1.14, written by Peter Selinger 2001-2017
</metadata>
<g transform="translate(0.000000,500.000000) scale(0.100000,-0.100000)"
fill="#000000" stroke="none">
<path d="M2419 2763 c-22 -6 -40 -49 -33 -79 12 -47 81 -61 108 -22 40 56 -7
119 -75 101z"/>
<path d="M2169 2731 c-1 -3 -2 -120 -3 -259 l-1 -252 61 0 62 0 0 259 0 259
-59 0 c-32 0 -59 -3 -60 -7z"/>
<path d="M628 2528 c-2 -101 -2 -211 0 -245 l3 -63 58 0 c39 0 60 4 63 13 3
10 2 373 -1 455 -1 20 -6 22 -61 22 l-59 0 -3 -182z"/>
<path d="M2630 2682 c-5 -2 -10 -26 -10 -53 0 -46 -2 -49 -25 -49 -22 0 -25
-4 -25 -40 0 -36 3 -40 25 -40 25 0 25 0 25 -96 0 -111 15 -156 61 -174 41
-18 98 -19 135 -4 31 13 31 14 20 54 -10 39 -12 41 -40 36 -47 -10 -56 7 -56
100 l0 84 50 0 50 0 0 40 0 40 -49 0 -50 0 -3 52 -3 52 -47 1 c-26 0 -52 -1
-58 -3z"/>
<path d="M850 2408 l0 -188 60 0 60 0 1 98 c1 117 3 128 25 153 17 19 68 26
91 11 21 -14 29 -56 28 -160 l-1 -103 60 3 61 3 -2 120 c0 66 -1 132 -2 148
-1 16 -15 42 -35 65 -33 35 -37 37 -100 37 -58 0 -68 -3 -95 -29 l-31 -30 0
30 0 30 -60 0 -60 -1 0 -187z"/>
<path d="M1375 2587 c-44 -21 -65 -49 -70 -96 -5 -58 28 -94 115 -124 53 -18
66 -26 68 -46 4 -23 2 -24 -45 -19 -27 3 -64 12 -83 21 -18 10 -34 17 -36 17
-1 0 -11 -16 -23 -35 l-20 -35 25 -17 c36 -23 109 -40 161 -37 90 7 143 53
143 127 0 46 -49 89 -127 112 -62 18 -78 32 -61 52 14 17 32 16 96 -6 l53 -18
20 39 20 39 -38 16 c-52 22 -160 27 -198 10z"/>
<path d="M2389 2582 c-1 -9 -2 -95 -3 -189 l-1 -173 60 0 61 0 -1 187 0 187
-57 2 c-48 2 -58 0 -59 -14z"/>
<path d="M2990 2584 c-71 -30 -109 -84 -114 -161 -4 -63 11 -109 50 -148 70
-72 220 -79 295 -13 98 86 78 256 -36 315 -41 22 -151 25 -195 7z m150 -112
c30 -37 27 -106 -5 -137 -45 -45 -117 -25 -133 38 -27 102 77 177 138 99z"/>
<path d="M3344 2588 c-3 -5 -5 -67 -5 -138 1 -139 13 -184 54 -210 55 -34 132
-30 175 10 27 25 30 25 28 -2 -1 -21 4 -23 60 -26 l61 -3 1 168 c1 224 5 211
-65 209 l-57 -2 -1 -104 c-1 -58 -5 -114 -9 -126 -15 -48 -99 -53 -117 -7 -5
13 -9 73 -9 132 l0 107 -55 1 c-31 0 -58 -4 -61 -9z"/>
<path d="M3814 2589 c-2 -4 -3 -88 -3 -188 l2 -181 58 0 c49 0 59 3 60 18 1 9
2 51 4 92 1 41 3 83 3 93 3 30 48 67 82 67 34 0 32 -3 35 64 l1 48 -34 -6
c-19 -3 -48 -17 -63 -32 l-27 -26 2 26 c2 14 -1 27 -5 28 -30 5 -111 3 -115
-3z"/>
<path d="M4165 2587 c-49 -23 -70 -54 -70 -102 0 -57 38 -98 103 -115 66 -16
97 -37 81 -56 -16 -20 -59 -18 -120 6 -28 12 -52 19 -54 18 -1 -2 -7 -18 -15
-36 -16 -41 -9 -49 60 -72 93 -32 205 -7 235 51 39 75 2 136 -106 171 -59 19
-69 25 -67 43 4 26 32 27 98 5 l51 -17 20 38 19 38 -32 17 c-44 23 -163 29
-203 11z"/>
<path d="M1784 2571 c-52 -24 -94 -78 -101 -131 -5 -33 -3 -40 11 -40 10 0 16
9 16 25 l0 26 30 -23 c27 -20 29 -23 13 -29 -10 -4 -37 -6 -61 -5 -28 1 -42
-3 -42 -12 0 -17 18 -23 76 -24 64 -2 105 7 171 37 59 27 76 51 49 70 -14 10
-27 7 -79 -21 -68 -37 -89 -42 -81 -19 3 8 11 13 17 12 6 -1 13 7 15 18 2 11
10 27 18 35 8 10 10 20 4 30 -18 28 -11 40 25 40 19 0 35 -4 35 -10 0 -5 10
-19 22 -30 l23 -21 22 27 c18 24 24 26 38 14 14 -12 14 -14 -1 -31 -10 -11
-29 -19 -43 -19 -24 -1 -24 -2 -8 -14 9 -7 17 -22 17 -32 1 -15 4 -14 15 7 25
46 65 49 65 4 0 -39 18 -38 29 2 6 21 11 46 11 56 0 9 4 17 9 17 14 0 21 29 9
36 -7 4 -8 3 -4 -5 8 -12 -26 -9 -91 9 -26 6 -33 5 -33 -5 0 -11 -9 -10 -42 5
-54 25 -102 25 -154 1z"/>
<path d="M1974 2401 c-29 -15 -49 -31 -47 -39 3 -6 9 -10 14 -6 5 3 10 2 10
-3 8 -55 7 -60 -21 -76 -15 -9 -42 -17 -58 -17 -28 0 -30 2 -27 36 2 19 9 42
16 51 11 13 7 14 -37 8 -63 -9 -71 -18 -44 -45 12 -12 19 -27 17 -33 -2 -7
-22 6 -45 31 -60 61 -84 58 -36 -6 36 -46 104 -76 161 -69 85 9 163 89 163
167 0 35 1 35 -66 1z"/>
</g>
</svg>
